<?xml version="1.0" encoding="UTF-8" standalone="no"?>
<!-- Created with Inkscape (http://www.inkscape.org/) -->

<svg
   xmlns:dc="http://purl.org/dc/elements/1.1/"
   xmlns:cc="http://creativecommons.org/ns#"
   xmlns:rdf="http://www.w3.org/1999/02/22-rdf-syntax-ns#"
   xmlns:svg="http://www.w3.org/2000/svg"
   xmlns="http://www.w3.org/2000/svg"
   xmlns:sodipodi="http://sodipodi.sourceforge.net/DTD/sodipodi-0.dtd"
   xmlns:inkscape="http://www.inkscape.org/namespaces/inkscape"
   width="100"
   height="100"
   viewBox="0 0 26.458333 26.458334"
   version="1.1"
   id="svg8"
   inkscape:version="0.92.2 2405546, 2018-03-11"
   sodipodi:docname="move-chain.svg"
   inkscape:export-filename="/home/rolf/development/pacosako/frontend/src/assets/move-chain.png"
   inkscape:export-xdpi="96"
   inkscape:export-ydpi="96">
  <defs
     id="defs2" />
  <sodipodi:namedview
     id="base"
     pagecolor="#ffffff"
     bordercolor="#666666"
     borderopacity="1.0"
     inkscape:pageopacity="0.0"
     inkscape:pageshadow="2"
     inkscape:zoom="2.6414062"
     inkscape:cx="104.90187"
     inkscape:cy="51.146347"
     inkscape:document-units="px"
     inkscape:current-layer="layer1"
     showgrid="false"
     units="px"
     inkscape:snap-bbox="true"
     inkscape:window-width="1920"
     inkscape:window-height="1131"
     inkscape:window-x="1920"
     inkscape:window-y="27"
     inkscape:window-maximized="1"
     showguides="true"
     inkscape:guide-bbox="true" />
  <metadata
     id="metadata5">
    <rdf:RDF>
      <cc:Work
         rdf:about="">
        <dc:format>image/svg+xml</dc:format>
        <dc:type
           rdf:resource="http://purl.org/dc/dcmitype/StillImage" />
        <dc:title></dc:title>
      </cc:Work>
    </rdf:RDF>
  </metadata>
  <g
     inkscape:label="Ebene 1"
     inkscape:groupmode="layer"
     id="layer1"
     transform="translate(0,-270.54165)">
    <path
       style="color:#000000;font-style:normal;font-variant:normal;font-weight:normal;font-stretch:normal;font-size:medium;line-height:normal;font-family:sans-serif;font-variant-ligatures:normal;font-variant-position:normal;font-variant-caps:normal;font-variant-numeric:normal;font-variant-alternates:normal;font-feature-settings:normal;text-indent:0;text-align:start;text-decoration:none;text-decoration-line:none;text-decoration-style:solid;text-decoration-color:#000000;letter-spacing:normal;word-spacing:normal;text-transform:none;writing-mode:lr-tb;direction:ltr;text-orientation:mixed;dominant-baseline:auto;baseline-shift:baseline;text-anchor:start;white-space:normal;shape-padding:0;clip-rule:nonzero;display:inline;overflow:visible;visibility:visible;opacity:1;isolation:auto;mix-blend-mode:normal;color-interpolation:sRGB;color-interpolation-filters:linearRGB;solid-color:#000000;solid-opacity:1;vector-effect:none;fill:#ffffff;fill-opacity:1;fill-rule:nonzero;stroke:none;stroke-width:10;stroke-linecap:round;stroke-linejoin:round;stroke-miterlimit:4;stroke-dasharray:none;stroke-dashoffset:0;stroke-opacity:1;color-rendering:auto;image-rendering:auto;shape-rendering:auto;text-rendering:auto;enable-background:accumulate"
       d="M 49.998047 10 C 28.976171 10 11.670817 26.363379 10.126953 47.001953 L 20.146484 47.001953 C 21.64173 31.79548 34.38368 20.001953 49.998047 20.001953 C 57.157726 20.001953 63.710589 22.485769 68.855469 26.636719 L 75.888672 19.560547 C 68.901907 13.607099 59.859826 10 49.998047 10 z M 78.966797 11.888672 C 76.747005 11.888672 76.747005 15.216797 78.966797 15.216797 L 81.623047 15.216797 L 55.982422 40.785156 C 54.051749 42.673219 56.93887 45.5424 58.814453 43.599609 L 84.441406 18.046875 L 84.441406 20.6875 C 84.369746 22.974341 87.837274 22.974341 87.765625 20.6875 L 87.765625 13.552734 C 87.766971 12.632344 87.019989 11.887311 86.099609 11.888672 L 78.966797 11.888672 z M 80.154297 23.783203 L 73.128906 30.851562 C 77.422517 36.039071 79.998047 42.706849 79.998047 50.001953 C 79.998047 66.629644 66.625723 80.001953 49.998047 80.001953 C 34.381073 80.001953 21.638223 68.20627 20.146484 52.996094 L 10.126953 52.996094 C 11.667488 73.637325 28.97384 89.998047 49.998047 89.998047 C 72.030124 89.998047 90 72.034066 90 50.001953 C 90 39.984442 86.276936 30.813859 80.154297 23.783203 z M 35.158203 42.537109 C 33.499416 42.534842 32.681074 44.553444 33.873047 45.707031 L 35.951172 47.785156 L 4.9492188 47.785156 C 1.8616433 47.641912 1.8616433 52.350427 4.9492188 52.207031 L 35.953125 52.207031 L 33.873047 54.287109 C 32.133447 56.025465 34.740869 58.632887 36.480469 56.894531 L 42.072266 51.302734 C 42.792084 50.582621 42.792084 49.415426 42.072266 48.695312 L 36.480469 43.097656 C 36.133493 42.739735 35.656655 42.537525 35.158203 42.537109 z M 50 45 A 4.9999997 4.9999997 0 0 0 45 50 A 4.9999997 4.9999997 0 0 0 50 55 A 4.9999997 4.9999997 0 0 0 55 50 A 4.9999997 4.9999997 0 0 0 50 45 z "
       transform="matrix(0.26458333,0,0,0.26458333,0,270.54165)"
       id="path815" />
  </g>
</svg>
